PathFileType	4	(X/Y/Z)	Kaydara	
DataRate	CameraRate	NumFrames	NumMarkers	Units	OrigDataRate	OrigDataStartFrame	OrigNumFrames	
240.00	240.00	4	72	mm	240.00	45	355	
Frame#	Time	Hips			RightUpLeg			RightLeg			RightFoot			RightFoot_End			LeftUpLeg			LeftLeg			LeftFoot			LeftFoot_End			Spine			Spine1			Spine2			Spine3			Neck			Head			Head_End			RightShoulder			RightArm			RightForeArm			RightHand			RightHandThumb1			RightHandThumb2			RightHandThumb3			RightHandThumb3_End			RightInHandIndex			RightHandIndex1			RightHandIndex2			RightHandIndex3			RightHandIndex3_End			RightInHandMiddle			RightHandMiddle1			RightHandMiddle2			RightHandMiddle3			RightHandMiddle3_End			RightInHandRing			RightHandRing1			RightHandRing2			RightHandRing3			RightHandRing3_End			RightInHandPinky			RightHandPinky1			RightHandPinky2			RightHandPinky3			RightHandPinky3_End			LeftShoulder			LeftArm			LeftForeArm			LeftHand			LeftHandThumb1			LeftHandThumb2			LeftHandThumb3			LeftHandThumb3_End			LeftInHandIndex			LeftHandIndex1			LeftHandIndex2			LeftHandIndex3			LeftHandIndex3_End			LeftInHandMiddle			LeftHandMiddle1			LeftHandMiddle2			LeftHandMiddle3			LeftHandMiddle3_End			LeftInHandRing			LeftHandRing1			LeftHandRing2			LeftHandRing3			LeftHandRing3_End			LeftInHandPinky			LeftHandPinky1			LeftHandPinky2			LeftHandPinky3			LeftHandPinky3_End			
		X1	Y1	Z1	X2	Y2	Z2	X3	Y3	Z3	X4	Y4	Z4	X5	Y5	Z5	X6	Y6	Z6	X7	Y7	Z7	X8	Y8	Z8	X9	Y9	Z9	X10	Y10	Z10	X11	Y11	Z11	X12	Y12	Z12	X13	Y13	Z13	X14	Y14	Z14	X15	Y15	Z15	X16	Y16	Z16	X17	Y17	Z17	X18	Y18	Z18	X19	Y19	Z19	X20	Y20	Z20	X21	Y21	Z21	X22	Y22	Z22	X23	Y23	Z23	X24	Y24	Z24	X25	Y25	Z25	X26	Y26	Z26	X27	Y27	Z27	X28	Y28	Z28	X29	Y29	Z29	X30	Y30	Z30	X31	Y31	Z31	X32	Y32	Z32	X33	Y33	Z33	X34	Y34	Z34	X35	Y35	Z35	X36	Y36	Z36	X37	Y37	Z37	X38	Y38	Z38	X39	Y39	Z39	X40	Y40	Z40	X41	Y41	Z41	X42	Y42	Z42	X43	Y43	Z43	X44	Y44	Z44	X45	Y45	Z45	X46	Y46	Z46	X47	Y47	Z47	X48	Y48	Z48	X49	Y49	Z49	X50	Y50	Z50	X51	Y51	Z51	X52	Y52	Z52	X53	Y53	Z53	X54	Y54	Z54	X55	Y55	Z55	X56	Y56	Z56	X57	Y57	Z57	X58	Y58	Z58	X59	Y59	Z59	X60	Y60	Z60	X61	Y61	Z61	X62	Y62	Z62	X63	Y63	Z63	X64	Y64	Z64	X65	Y65	Z65	X66	Y66	Z66	X67	Y67	Z67	X68	Y68	Z68	X69	Y69	Z69	X70	Y70	Z70	X71	Y71	Z71	X72	Y72	Z72	

45	0.183	4921.0129	906.651	56.2195	5003.1097392790025	893.1924664477582	3.4627167391107903	4917.690136389859	493.66714790403677	-90.30274896915348	4893.196220253268	107.08199708249306	-159.8051776726688	4818.021194546142	32.05813675264401	-0.8721680150093324	4848.2714611723695	891.8710182821816	120.78572567042657	4781.00986631099	488.8993797987097	213.94691818413548	4742.234733199314	57.574291683663375	299.37788696088865	4607.750708193563	-15.475465241993378	184.35701879573307	4876.6467342106025	1032.6265409244565	4.675531960133224	4826.743052554223	1097.6647567536124	-47.24135710129468	4769.936231264381	1159.2221939593962	-103.81124212107872	4709.40544218489	1208.6395794675327	-161.77553873608355	4644.35796094087	1261.7595567124422	-223.02381025900138	4583.8828496555225	1309.9894676725553	-277.9302802585491	4467.0456614300865	1405.6542367242398	-330.18057421008507	4688.906862938617	1245.9530581636473	-224.61582352106132	4746.723981340028	1232.7208941936547	-336.49931507632357	4761.146584771017	958.4206230576164	-317.95717269380464	4825.613828361795	717.3941959188975	-379.2093986876901	4825.927133895859	699.2410890898354	-390.0990807799667	4816.125390708978	689.3827008404687	-399.13768033749324	4810.607970356229	680.9917179692442	-404.17779055273974	4807.127735747115	672.6914107008761	-407.3064240673546	4832.159204735969	690.3767191908669	-386.53977433942475	4840.464077575512	650.9203895059393	-393.3580159172524	4838.163511666755	632.703461448445	-398.4331125897793	4830.587823316845	630.7547005763392	-402.2623160680155	4820.172150208939	635.4665844483268	-405.88639241203356	4835.045040811463	688.0398683368496	-382.90646650482375	4844.708620646286	648.2887144430911	-387.59141985151666	4842.541993117088	628.2416017794908	-392.6282522245516	4833.567141641286	625.8095104918352	-397.00757738659405	4822.250685349955	630.9258051736309	-400.8560723131898	4836.964205603881	687.2840923687789	-380.15534599541814	4847.5605778920635	650.6763787560566	-381.93599669629685	4846.00723679869	633.094573034913	-385.80666172704497	4837.528220184254	630.6909442119721	-389.75500870027616	4826.9722158626455	635.4742244630957	-393.2428374572015	4838.208838525586	688.4356891816083	-376.86732364360097	4849.00730389188	655.1818644389708	-376.44146215533016	4848.239342791483	641.0939434681243	-378.7228455021134	4842.284921136114	639.3363427040268	-381.20704407590176	4833.066502786398	643.5710278451454	-384.06893933240184	4642.325353532669	1242.8771009155805	-179.22021564217744	4578.710640510004	1181.0474711659865	-82.21069181437616	4692.436183565259	996.2865958856015	-210.36057681131217	4856.1549677295625	813.1002694540537	-328.15862158712014	4840.813202916333	800.449485213604	-345.3948351121698	4833.185746633316	777.3541283733882	-381.0911840821085	4828.3223508482	759.6452624625599	-406.7791716783317	4824.65151792498	743.4917825113597	-428.9033663633073	4840.102816360159	793.7184662895964	-348.6684549028301	4821.175209973868	756.9610737093246	-388.6315211198028	4812.864709327833	730.0152736338817	-423.277431893529	4811.469904592133	716.6892883422091	-444.7925020383069	4812.859640065506	707.9704577530251	-462.5841410497638	4842.212161946755	790.5124600998967	-349.85728875450894	4824.890299434379	752.9266645191134	-389.4771537333265	4816.167679428751	723.2179324989737	-427.3185077492213	4814.6508436405	706.9940322846862	-453.292812643069	4816.252142326833	697.3827934437846	-472.76843363659566	4844.135215318225	789.1813432797034	-349.6213706794817	4830.1338633402975	754.3295624115831	-384.75993538427997	4822.9124798812345	728.18234163209	-417.7173495080804	4821.651862787321	712.3987661176587	-442.75821691539295	4823.253450340025	703.2981273393419	-461.06384845312317	4847.29542764426	788.7440849444991	-348.6331202866459	4836.227176766494	756.4831578280688	-380.0776272124959	4831.100844139324	735.3027768101495	-406.2764820568868	4830.498806872914	723.6727891676445	-424.44841230971065	4832.10025874039	715.5435484354971	-440.6107114494382
46	0.188	4921.0129	906.651	56.2195	5003.027612141807	893.1209766245553	3.4025293713474256	4917.712804788213	493.55621834393844	-90.29285765103695	4893.280970501908	107.00088346922975	-159.85243665044	4818.1015587239945	31.9692991896011	-0.925263374090022	4848.33559962228	891.9382761141394	120.84981075974736	4781.1636311060165	488.93807749711203	213.94667411263362	4742.398691781274	57.602584542828076	299.3271241379176	4607.935728749362	-15.475485573749047	184.30296557779735	4876.7287191122905	1032.6477004081073	4.660309810058814	4826.947108722954	1097.7920702024348	-47.245250695037434	4770.250333193459	1159.4541951727088	-103.81618616641771	4709.778395597894	1208.932959027762	-161.79769975303333	4644.789893422682	1262.114954177923	-223.06319105414013	4584.364432821654	1310.398951225099	-277.98327637669365	4467.474680621987	1406.0024020516441	-330.2219724632317	4689.315476943381	1246.255186748967	-224.6766540738163	4747.115952450593	1232.9929386152332	-336.74914889468135	4761.392738012196	958.6929277128298	-318.4005239287897	4825.854703194502	718.6414754467993	-380.2098842842334	4826.042449839558	700.611715771817	-391.1653301540246	4816.074650149766	690.9274797160076	-400.2217313102078	4810.455742792279	682.6643018419894	-405.27990364633763	4806.903011816063	674.4761228308926	-408.4284411601661	4832.320683466026	691.7814448091007	-387.640518461245	4840.526649434419	652.5925892383048	-394.5976834784162	4838.120174805167	634.5650577809295	-399.7259065277134	4830.454434564726	632.709764145058	-403.54883883690945	4819.947896332469	637.4826327352401	-407.14121552372194	4835.246698180858	689.4531880806289	-384.0157135106874	4844.835550483681	649.967567813763	-388.84078031433523	4842.558931575648	630.1273951037505	-393.93620080756773	4833.478111498382	627.8081981561033	-398.30825594896635	4822.063532842523	632.9912840615384	-402.1222096896397	4837.197222506001	688.6967209270584	-381.26756194159975	4847.755161145803	652.3265623020613	-383.17784256571434	4846.1117629907585	634.9249834761779	-387.0999775482412	4837.533617714674	632.6301742477864	-391.04152658160785	4826.886816323805	637.4762191931566	-394.4969794279732	4838.477324660826	689.8392776913943	-377.97494376129	4849.263881241754	656.7980608845954	-377.66689043117213	4848.433037623514	642.853199700597	-379.98955039734597	4842.410776748583	641.1743633831607	-382.4688202331942	4833.114496978175	645.4642972982135	-385.3020528598189	4642.743061830466	1243.2459903214344	-179.22558143232945	4578.971263933608	1181.6388336544558	-82.0781141699333	4692.679456828757	996.8078010749247	-210.16820306006082	4856.289145189967	813.973838799713	-328.4168032686207	4840.856806818729	801.2818699307461	-345.72314293130614	4833.0985259359	778.237943598187	-381.53299559477693	4828.143218374114	760.5814912828858	-407.28855546270853	4824.395073172181	744.4859049060299	-429.4592682220404	4840.137404577527	794.6022846524969	-348.9547867106267	4821.04515629342	757.9406775966711	-388.94988301844876	4812.608425732168	731.0844237986565	-423.6570027345978	4811.142178283592	717.8057206071885	-445.23834890033896	4812.477525153763	709.120367018401	-463.1038812095488	4842.249735422121	791.4391748266506	-350.1131538527307	4824.768904323599	753.9700016375385	-389.74776932547644	4815.909455744054	724.364360597471	-427.65183934111815	4814.306865256928	708.200085164269	-453.70414812824896	4815.848866260981	698.6267305996302	-473.2596712988525	4844.179179636945	790.1358150901244	-349.8544299684895	4830.041142841594	755.4123397009371	-384.9850598947042	4822.701682343068	729.3602874082135	-417.9929538819079	4821.358976266233	713.6370469822417	-443.10684084758043	4822.905106873962	704.573366374093	-461.4865476807843	4847.350894977439	789.7285994306576	-348.84262027022595	4836.16458538494	757.603553555491	-380.26377935099043	4830.946142534628	736.5071120506456	-406.4965678226601	4830.285410258138	724.9248732160974	-424.71861995903697	4831.838415813823	716.8305239395632	-440.9447315436152
47	0.192	4921.0129	906.651	56.2195	5002.947620128121	893.0495942569468	3.3424970081310192	4917.754480594469	493.44291440116746	-90.28606087717674	4893.37432501581	106.91728481979472	-159.90102171662053	4818.190948227273	31.87812924561676	-0.9793978806136441	4848.397000429611	892.0052003066173	120.91351536020757	4781.320783090358	488.974743352436	213.94335485849047	4742.5666698474515	57.628462059305754	299.2701924273412	4608.124925030133	-15.478030172066694	184.24265103332738	4876.8133288066465	1032.6698686017828	4.646070861893871	4827.156891755151	1097.922698707112	-47.247090380669626	4770.574894635343	1159.6937491972637	-103.81808339178113	4710.164842034951	1209.2361949943027	-161.8171923289568	4645.238343369238	1262.4825435668395	-223.10026690287665	4584.865084027659	1310.822657602125	-278.034267309849	4467.91901514924	1406.3614514635512	-330.2586283994892	4689.74164404399	1246.5692736591823	-224.73564736698583	4747.5327754705595	1233.2824220388516	-337.0082417608431	4761.652524448233	958.9757394714261	-318.87546064109057	4826.098622748865	719.9241094828528	-381.20454638548335	4826.161390110861	702.0110047604601	-392.22727789089913	4816.018249517432	692.4940437713234	-401.30125492059096	4810.290575341247	684.3553346465226	-406.3768805535673	4806.65858263356	676.2777456079858	-409.54442818004594	4832.483650524371	693.2198458904237	-388.73552632503447	4840.582152135904	654.2994746271384	-395.8298792046904	4838.0599177994	636.4598068748088	-401.0097819012392	4830.297190100902	634.6945382091875	-404.8259150193611	4819.693499011647	639.5238632663717	-408.3864055343087	4835.447742188834	690.903993761409	-385.1180449463847	4844.9523845536605	651.6869541485677	-390.0808945654429	4842.554770455842	632.0525454136767	-395.23317422988174	4833.359492191191	629.8423281907362	-399.59725019866266	4821.839851897653	635.0873664678301	-403.3764236175413	4837.428392108386	690.149534145021	-382.37207255922414	4847.938423007599	654.0220987379989	-384.40920625248805	4846.1951313595355	636.8002243529979	-388.3811543175128	4837.509538194251	634.6107256228042	-392.3151417736642	4826.765353290233	639.5151119791678	-395.737956136733	4838.742532951339	691.2858767482273	-379.074005445357	4849.507715645921	658.4638593700438	-378.8806839483345	4848.605770981409	644.662400839007	-381.243072005987	4842.5094374301	643.0601376421657	-383.71674882536917	4833.129366550558	647.4016139492516	-386.5210244882043	4643.174160027089	1243.6257478024822	-179.22784115931677	4579.22740983944	1182.2422107778775	-81.94151153235448	4692.9365690387785	997.3313413348741	-209.95044681619453	4856.43661625334	814.8552953095378	-328.6422394167741	4840.914073033461	802.1251506152161	-346.03040355871104	4833.031163554284	779.1434337923457	-381.9552276171492	4827.988752796766	761.5467912885595	-407.7773198621916	4824.167726330085	745.5151700483627	-429.9919198025768	4840.187045273777	795.4960985253398	-349.2142748083709	4820.936464464596	758.9364737189403	-389.2405124194049	4812.380102469007	732.1782512500685	-424.00543496585317	4810.8468347025	718.9540047384895	-445.65115811961425	4812.131669316224	710.3093477699834	-463.5891592925395	4842.303589395303	792.3755677641439	-350.33646538580615	4824.670607303564	755.0288882514233	-389.9818767833695	4815.6816747198645	725.5355403285836	-427.9441920646687	4813.998734251517	709.4395183006102	-454.07185180197223	4815.485712664153	699.911934345054	-473.7055426682406	4844.240113122624	791.099540947025	-350.0509390051139	4829.972046751622	756.509142228789	-385.1666635246292	4822.521047742345	730.5602122376787	-418.2203760634523	4821.101538702122	714.9055944290617	-443.40431756809943	4822.596266509026	705.886270315385	-461.8562764355373	4847.424083683262	790.7220293182147	-349.01087396590106	4836.126225124742	758.7368935559197	-380.3994455474477	4830.821092659548	737.7306359753285	-406.6612724787403	4830.105610414668	726.2021305906039	-424.93072142147327	4831.613812407392	718.1491917596102	-441.2187066914806
48	0.196	4921.0129	906.651	56.2195	5002.8697468472565	892.978543068069	3.282853215303203	4917.814268463392	493.3276453258416	-90.28190310275856	4893.476777225608	106.83172701879394	-159.95067891724247	4818.2898869558785	31.785132203723254	-1.0343134899162025	4848.455740063833	892.0715694430268	120.97656190671665	4781.480993473905	489.0093730825689	213.93731766046477	4742.738048317816	57.651958976349995	299.20745670091674	4608.317703525298	-15.483069294646342	184.1764204556082	4876.900297897922	1032.6930292057664	4.633004569727555	4827.371337340431	1098.0559938691158	-47.24669737497257	4770.908101391827	1159.9395711436664	-103.81667386800822	4710.562648870083	1209.5477889846734	-161.83355468955568	4645.700860545149	1262.8606098597297	-223.13437234452755	4585.382093577867	1311.2586840631748	-278.082420868381	4468.3762623638495	1406.7298036973702	-330.2898362083423	4690.182976989136	1246.8938702064618	-224.79199614479288	4747.97232040581	1233.588471351186	-337.274338740721	4761.924350678208	959.2683541567027	-319.38076476273534	4826.341123534578	721.2380245280764	-382.1911614488239	4826.28046417597	703.4347731571162	-393.2825058422502	4815.953483017217	694.0772006012202	-402.37416877340047	4810.110129068425	686.0588440352619	-407.4668803509225	4806.392261428791	678.0895906711823	-410.65275205413764	4832.644033257111	694.6875163911474	-389.82233418875705	4840.626562965711	656.0355747470694	-397.05203962768354	4837.978899316207	638.3811621389259	-402.2824005635568	4830.112584296007	636.701769058587	-406.0915098285116	4819.405880855381	641.582411163336	-409.6202888839368	4835.643616840191	692.3876912727794	-386.2110353649087	4845.054354088897	653.4411390610854	-391.3092605167598	4842.524875158417	634.0101227788591	-396.51692201990005	4833.207023539927	631.9041071027139	-400.8726784142313	4821.575836034881	637.2055850900572	-404.61722896267406	4837.652813007655	691.6378349079489	-383.4664790397604	4848.104963784891	655.7571874604308	-385.6276347201371	4846.251994356572	638.713432529035	-389.64796433175724	4837.450960820209	636.6248913440307	-393.57398546117946	4826.603216243809	641.5825571202774	-396.96427317774726	4838.999183345838	692.7706802315743	-380.16216681558893	4849.732827703994	660.1733831168227	-380.0804762113559	4848.751506318045	646.514792089988	-382.4812339298364	4842.575057122206	644.9862820285174	-384.94891990091656	4833.105601356789	649.3750209879503	-387.72427861974313	4643.616338986886	1244.014525054061	-179.22661625648527	4579.478062718991	1182.8542118379887	-81.80158089317825	4693.205018801429	997.8542888270059	-209.70950717337772	4856.593918961185	815.7408580489071	-328.83555326439546	4840.982030749782	802.9766403124881	-346.31707450068393	4832.981542700585	780.0682093682702	-382.3574213460032	4827.857414424551	762.5388119686432	-408.2443606119791	4823.968403715691	746.5771162763403	-430.4996724653917	4840.248714889066	796.3967603579849	-349.44740645676933	4820.8468651986905	759.9454804604615	-389.5033528060264	4812.178179767091	733.2936692204311	-424.32191291327695	4810.582812365117	720.1309914747026	-446.02948123770835	4811.821462074917	711.5342009624644	-464.0378946129156	4842.370634842425	793.3180181404679	-350.52769147360914	4824.5930195798755	756.0996095343637	-390.1794035989366	4815.482710933327	726.7275788672025	-428.1946637807356	4813.725421159098	710.7083331197257	-454.3942575017753	4815.162143019693	701.2343368781918	-474.1036895203348	4844.31485941263	792.0685626886384	-350.2113699716792	4829.92398241531	757.6156380979038	-385.3047483270348	4822.368636604561	731.7775645638736	-418.3988945435981	4820.878179003248	716.1997206346159	-443.64918836399517	4822.326016703502	707.23207001167	-462.1709251783092	4847.511752429146	791.7200135201953	-349.1383447670896	4836.109313369398	759.8782295504855	-380.4846648506867	4830.723413497294	738.9681253761288	-406.77005698751975	4829.957530534024	727.4991907835946	-425.08364057718967	4831.4249719459	719.4940817753959	-441.43098461124487
